<svg width="665" height="209" viewBox="0 0 665 209" fill="none" xmlns="http://www.w3.org/2000/svg">
<path d="M427.618 96.8535V85.4817H432.113V81.4629H417.943V85.4817H422.438V96.8535H427.618Z" fill="#EEEDEF"/>
<path d="M541.01 92.9869H542.409L544.999 96.8568H550.536L547.321 92.1236C548.199 91.6737 548.94 90.9948 549.464 90.1588C549.994 89.259 550.252 88.2252 550.209 87.1819C550.241 86.098 549.942 85.0299 549.352 84.1203C548.761 83.2107 547.907 82.5029 546.904 82.0914C545.738 81.594 544.48 81.3505 543.213 81.377H535.83V96.7675H541.01V92.8975V92.9869ZM541.01 85.4851H542.885C543.448 85.4425 544.007 85.6007 544.463 85.9316C544.809 86.2919 545.002 86.7719 545.002 87.2712C545.002 87.7705 544.809 88.2505 544.463 88.6108C544.007 88.9417 543.448 89.1 542.885 89.0574H541.01V85.4851Z" fill="#EEEDEF"/>
<path d="M475.721 81.4629V89.9173C475.66 90.9022 475.803 91.8891 476.141 92.8162C476.479 93.7434 477.005 94.5908 477.685 95.3055C479.26 96.544 481.204 97.2174 483.208 97.2174C485.211 97.2174 487.155 96.544 488.73 95.3055C489.41 94.5908 489.936 93.7434 490.274 92.8162C490.612 91.8891 490.755 90.9022 490.694 89.9173V81.4629H485.604V89.7684C485.678 90.6388 485.458 91.5089 484.979 92.2393C484.772 92.4954 484.508 92.699 484.208 92.8335C483.908 92.9681 483.581 93.0296 483.252 93.0133C482.919 93.0296 482.587 92.9682 482.282 92.8338C481.978 92.6995 481.708 92.4959 481.496 92.2393C481.043 91.4985 480.835 90.6341 480.9 89.7684V81.4629H475.721Z" fill="#EEEDEF"/>
<path d="M462.026 63.0375V29.6367H435.234C432.665 29.6523 430.206 30.6798 428.389 32.4964C426.572 34.313 425.545 36.7724 425.529 39.3414V63.1566H433.21V39.3414C433.201 39.0746 433.25 38.8091 433.353 38.5627C433.456 38.3162 433.61 38.0946 433.805 37.9125C433.986 37.7239 434.203 37.5739 434.444 37.4716C434.684 37.3693 434.943 37.3167 435.204 37.3171H454.346V63.0971L462.026 63.0375Z" fill="#EEEDEF"/>
<path d="M532.937 54.732C532.73 54.9497 532.48 55.1228 532.204 55.2405C531.928 55.3583 531.63 55.4182 531.329 55.4167H506.502V63.0375H532.252C533.522 63.0297 534.777 62.7615 535.94 62.2495C537.102 61.7375 538.147 60.9925 539.01 60.0606C539.919 59.1537 540.633 58.0707 541.11 56.8781C541.586 55.6854 541.813 54.4081 541.778 53.1245V42.7351H513.647V39.4605C513.703 38.8812 513.968 38.3419 514.391 37.9423C514.607 37.7304 514.863 37.5635 515.144 37.4511C515.425 37.3387 515.726 37.283 516.028 37.2873H541.749V29.6367H516.028C514.754 29.6483 513.495 29.9123 512.323 30.4134C511.151 30.9145 510.091 31.6428 509.202 32.5563C508.314 33.4697 507.615 34.5502 507.146 35.7352C506.678 36.9202 506.449 38.1864 506.472 39.4605V49.9094H533.681V53.4519C533.555 53.9388 533.298 54.3817 532.937 54.732Z" fill="#EEEDEF"/>
<path d="M664.065 42.9137V29.6368H636.588C635.303 29.6323 634.031 29.8946 632.853 30.407C631.674 30.9194 630.615 31.6708 629.742 32.6137C628.808 33.4946 628.064 34.5555 627.552 35.7323C627.04 36.9091 626.773 38.1774 626.765 39.4605V63.2757H634.386V52.5589H650.342L655.938 63.0376H663.529L657.963 51.904C659.182 51.4099 660.286 50.6702 661.207 49.7308C662.118 48.8454 662.84 47.7851 663.332 46.6138C663.823 45.4424 664.072 44.1839 664.065 42.9137ZM656.444 42.9137C656.462 43.1739 656.427 43.4349 656.34 43.6807C656.252 43.9265 656.116 44.1518 655.938 44.3427C655.567 44.6926 655.079 44.8938 654.569 44.9083H634.505V39.3712C634.52 38.8233 634.744 38.302 635.132 37.9144C635.519 37.5268 636.04 37.3024 636.588 37.2874H656.444V42.9137Z" fill="#EEEDEF"/>
<path d="M568.311 63.0375V37.2873H582.153V29.6367H546.371V37.2873H560.69V63.0375H568.311Z" fill="#EEEDEF"/>
<path d="M659.398 93.0433C658.901 93.2141 658.375 93.2849 657.85 93.2517C656.964 93.2334 656.084 93.1034 655.231 92.8647C654.38 92.6236 653.561 92.2839 652.79 91.8526L651.152 95.6035C652.067 96.1663 653.075 96.5596 654.129 96.7645C655.347 97.0646 656.596 97.2146 657.85 97.211C659.195 97.2461 660.533 97.0029 661.78 96.4965C662.746 96.1282 663.583 95.4869 664.191 94.6509C664.723 93.8817 665.004 92.9665 664.995 92.0312C665.05 91.0659 664.73 90.1168 664.102 89.3817C663.538 88.7448 662.821 88.2631 662.018 87.9826C661.046 87.6608 660.051 87.412 659.041 87.2384C658.387 87.1051 657.741 86.9362 657.106 86.7323C656.719 86.5835 656.511 86.3453 656.511 86.0476C656.511 85.7499 657.166 85.0652 658.505 85.0652C660.002 85.1107 661.468 85.4977 662.792 86.1965L664.34 82.4456C663.505 81.9766 662.601 81.6449 661.661 81.4632C660.636 81.2236 659.587 81.1038 658.535 81.106C657.193 81.0767 655.858 81.3093 654.606 81.7907C653.632 82.1592 652.791 82.8128 652.194 83.6661C651.662 84.4353 651.381 85.3505 651.391 86.2858C651.327 87.247 651.636 88.1957 652.254 88.9352C652.809 89.568 653.516 90.0494 654.308 90.3344C655.278 90.6789 656.273 90.9476 657.285 91.1381C657.959 91.2797 658.625 91.4586 659.279 91.674C659.443 91.7125 659.589 91.8029 659.696 91.9318C659.804 92.0606 659.866 92.2209 659.875 92.3884C659.875 92.534 659.829 92.6761 659.744 92.7938C659.658 92.9116 659.537 92.999 659.398 93.0433Z" fill="#EEEDEF"/>
<path d="M622.307 63.0376V29.6368H596.378C595.093 29.6323 593.821 29.8946 592.642 30.407C591.463 30.9194 590.404 31.6708 589.531 32.6137C588.582 33.5073 587.828 34.5872 587.315 35.7859C586.803 36.9846 586.544 38.2761 586.554 39.5796V63.0376H594.175V54.5534H614.537V63.0376H622.307ZM594.324 46.9326V39.0735C594.33 38.8265 594.386 38.5832 594.489 38.3582C594.591 38.1332 594.737 37.9311 594.919 37.7637C595.114 37.5837 595.345 37.4459 595.596 37.3589C595.847 37.2718 596.113 37.2373 596.378 37.2576H614.686V46.9326H594.324Z" fill="#EEEDEF"/>
<path d="M607.182 85.3924V81.4629H594.679V96.8535H607.479V92.924H599.769V90.9294H606.289V87.1785H599.769V85.3924H607.182Z" fill="#EEEDEF"/>
<path d="M501.89 46.3371H494.269V55.4464H474.234V39.4605C474.249 38.8939 474.478 38.354 474.876 37.9505C475.275 37.5469 475.811 37.3098 476.378 37.2873H500.461V29.6367H476.378C473.785 29.6602 471.306 30.7046 469.478 32.5436C467.65 34.3825 466.621 36.8677 466.613 39.4605V63.0375H501.89V46.3371Z" fill="#EEEDEF"/>
<path d="M323.068 60.0905C324.017 59.1969 324.771 58.1169 325.283 56.9182C325.796 55.7196 326.055 54.428 326.045 53.1245V29.6368H299.014C297.729 29.6323 296.457 29.8946 295.279 30.407C294.1 30.9194 293.041 31.6708 292.168 32.6137C291.219 33.5073 290.464 34.5872 289.952 35.7859C289.44 36.9846 289.181 38.2761 289.191 39.5796V53.1245C289.181 54.428 289.44 55.7196 289.952 56.9182C290.464 58.1169 291.219 59.1969 292.168 60.0905C293.043 61.0305 294.103 61.78 295.281 62.2922C296.459 62.8044 297.73 63.0682 299.014 63.0674H316.37C317.629 63.0497 318.873 62.7769 320.024 62.2652C321.175 61.7535 322.211 61.0137 323.068 60.0905ZM301.217 55.4167H298.866C298.342 55.4364 297.831 55.2554 297.437 54.9106C297.13 54.609 296.94 54.2081 296.901 53.7794V39.0735C296.908 38.8193 296.967 38.5691 297.074 38.3383C297.181 38.1075 297.334 37.9009 297.523 37.7311C297.713 37.5612 297.935 37.4316 298.176 37.3502C298.417 37.2688 298.672 37.2373 298.925 37.2576H318.335V53.7794C318.309 54.2756 318.096 54.7436 317.739 55.0893C317.334 55.4359 316.813 55.6166 316.28 55.5953H301.396L301.217 55.4167Z" fill="#EEEDEF"/>
<path d="M420.98 29.6367H413.359V63.0078H420.98V29.6367Z" fill="#EEEDEF"/>
<path d="M313.898 85.3924V81.4629H301.396V96.8535H314.196V92.924H306.516V90.9294H313.005V87.1785H306.516V85.3924H313.898Z" fill="#EEEDEF"/>
<path d="M245.756 81.4629H240.189L246.679 96.8535H251.77L258.289 81.4629H253.199L249.418 90.4531L245.756 81.4629Z" fill="#EEEDEF"/>
<path d="M284.635 63.0375V29.6367H250.401C247.832 29.6446 245.371 30.6705 243.557 32.4897C241.744 34.3088 240.726 36.7727 240.726 39.3414V63.1566H248.406V39.3414C248.398 39.0746 248.447 38.8091 248.549 38.5627C248.652 38.3162 248.806 38.0946 249.001 37.9125C249.182 37.7239 249.4 37.5739 249.64 37.4716C249.88 37.3693 250.139 37.3167 250.401 37.3171H258.885V63.0971H266.506V37.2576H276.954V63.0375H284.635Z" fill="#EEEDEF"/>
<path d="M363.858 89.8578L369.723 96.8535H373.98V81.4629H368.919V88.4586L363.084 81.4629H358.827V96.8535H363.858V89.8578Z" fill="#EEEDEF"/>
<path d="M408.737 63.0375V29.6367H381.945C379.376 29.6523 376.917 30.6798 375.1 32.4964C373.283 34.313 372.256 36.7724 372.24 39.3414V63.1566H379.921V39.3414C379.92 39.0756 379.972 38.8122 380.074 38.5668C380.176 38.3214 380.327 38.099 380.516 37.9125C380.697 37.7239 380.914 37.5739 381.155 37.4716C381.395 37.3693 381.654 37.3167 381.915 37.3171H401.086V63.0971L408.737 63.0375Z" fill="#EEEDEF"/>
<path d="M367.688 42.9137V29.6368H340.181C338.896 29.6323 337.624 29.8946 336.445 30.407C335.267 30.9194 334.208 31.6708 333.334 32.6137C332.401 33.4946 331.656 34.5555 331.145 35.7323C330.633 36.9091 330.365 38.1774 330.357 39.4605V63.2757H337.978V52.5589H353.934L359.531 63.0376H367.122L361.555 51.904C362.775 51.4099 363.879 50.6702 364.8 49.7308C365.715 48.8468 366.442 47.7876 366.938 46.6163C367.434 45.445 367.689 44.1858 367.688 42.9137ZM360.037 42.9137C360.055 43.1739 360.019 43.4349 359.932 43.6807C359.845 43.9265 359.709 44.1518 359.531 44.3427C359.162 44.6975 358.673 44.8995 358.162 44.9083H338.097V39.3712C338.112 38.8233 338.337 38.302 338.724 37.9144C339.112 37.5268 339.633 37.3024 340.181 37.2874H360.037V42.9137Z" fill="#EEEDEF"/>
<path d="M134.778 82.0303L0.28125 208.578L126.799 74.0819C130.006 70.6762 131.84 66.2055 131.95 61.5293C132.06 56.853 130.438 52.3012 127.395 48.7485L85.7182 0.195312L134.837 42.378C138.271 45.3287 142.649 46.9512 147.176 46.9512C151.704 46.9512 156.082 45.3287 159.516 42.378L208.664 0.195312L166.482 49.3141C163.529 52.7529 161.905 57.1356 161.905 61.6683C161.905 66.2009 163.529 70.5837 166.482 74.0224L208.664 123.141L160.111 81.4646C156.562 78.418 152.012 76.7904 147.336 76.8948C142.66 76.9992 138.187 78.8282 134.778 82.0303Z" fill="#EEEDEF"/>
</svg>
