<?xml version="1.0" standalone="no"?>
<!DOCTYPE svg PUBLIC "-//W3C//DTD SVG 20010904//EN"
 "http://www.w3.org/TR/2001/REC-SVG-20010904/DTD/svg10.dtd">
<svg version="1.0" xmlns="http://www.w3.org/2000/svg"
 width="1000.000000pt" height="600.000000pt" viewBox="0 0 1000.000000 600.000000"
 preserveAspectRatio="xMidYMid meet">

<g transform="translate(0.000000,600.000000) scale(0.100000,-0.100000)"
fill="#ffb400" stroke="none">
<path d="M4732 5964 c-406 -59 -791 -252 -1078 -542 -268 -270 -440 -592 -522
-972 -24 -116 -26 -143 -27 -370 0 -218 3 -258 23 -360 44 -217 124 -430 226
-604 300 -509 805 -848 1389 -931 134 -19 378 -19 519 1 140 19 284 55 408
101 84 31 190 79 190 86 0 1 -21 1 -46 -1 -60 -5 -286 15 -388 34 -125 24
-387 116 -373 131 4 3 32 -1 64 -10 170 -48 534 -66 728 -38 176 26 271 44
290 54 60 31 365 320 352 333 -2 2 -39 -12 -82 -32 -183 -85 -402 -149 -610
-179 -163 -24 -468 -25 -625 -1 -327 49 -664 173 -905 333 -85 56 -266 200
-280 222 -11 19 9 12 35 -12 117 -107 385 -221 620 -263 47 -8 150 -18 230
-21 320 -12 668 62 1025 219 320 141 431 187 605 252 107 41 225 83 262 95 78
26 70 11 115 221 25 116 27 142 27 365 0 222 -2 249 -26 365 -114 530 -403
953 -851 1245 -225 146 -514 249 -797 284 -114 15 -384 12 -498 -5z m439 -410
c103 -19 230 -64 344 -121 100 -50 101 -51 93 -59 -3 -3 -21 1 -40 9 -127 53
-448 62 -618 17 -318 -84 -592 -306 -739 -597 -175 -349 -152 -794 58 -1111
176 -264 390 -419 693 -499 94 -25 118 -28 273 -27 148 1 183 5 270 27 119 30
110 19 -42 -55 -59 -28 -152 -62 -220 -80 -112 -30 -128 -31 -313 -32 -132 -1
-213 3 -250 12 -203 50 -364 120 -503 220 -96 69 -245 222 -315 325 -238 347
-283 790 -122 1200 165 420 584 740 1033 787 106 11 296 4 398 -16z m274 -303
c283 -72 540 -299 644 -570 49 -128 64 -224 59 -385 -4 -125 -8 -151 -37 -235
-30 -90 -90 -216 -98 -208 -2 2 4 35 13 73 24 97 24 286 -1 379 -82 315 -312
546 -621 622 -101 24 -295 22 -399 -6 -369 -97 -625 -428 -625 -806 0 -84 22
-222 41 -257 7 -12 6 -18 -1 -18 -15 0 -86 158 -117 259 -23 76 -26 104 -27
231 0 159 11 222 64 359 94 244 318 456 570 540 163 55 372 63 535 22z"/>
<path d="M975 1106 c-74 -19 -132 -52 -186 -106 -154 -154 -155 -403 -1 -557
154 -154 401 -159 556 -11 l46 45 0 157 0 156 -192 -2 -193 -3 -3 -67 -3 -68
115 0 c126 0 125 0 118 -65 -4 -35 -45 -67 -108 -84 -152 -42 -313 113 -275
267 41 163 224 233 364 138 l35 -24 68 46 68 45 -52 48 c-30 28 -75 56 -109
69 -70 27 -179 34 -248 16z"/>
<path d="M3323 1105 c-301 -67 -413 -446 -195 -664 196 -196 516 -143 640 107
35 71 37 81 36 166 0 70 -6 105 -23 149 -72 183 -265 285 -458 242z m154 -170
c68 -20 127 -80 149 -149 55 -174 -112 -339 -284 -282 -217 72 -201 382 23
437 46 11 57 10 112 -6z"/>
<path d="M5732 1109 c-74 -14 -150 -56 -204 -111 -154 -158 -152 -408 4 -560
124 -121 307 -149 460 -72 55 28 128 90 128 109 0 7 -28 31 -61 53 l-62 40
-39 -28 c-180 -131 -425 32 -364 242 44 153 228 213 362 119 l42 -29 68 45 68
46 -49 44 c-103 94 -222 128 -353 102z"/>
<path d="M6875 1106 c-210 -49 -344 -257 -300 -467 34 -163 155 -280 324 -311
193 -36 387 87 445 281 84 286 -178 563 -469 497z m193 -188 c102 -48 149
-182 101 -288 -25 -55 -53 -86 -99 -110 -87 -45 -181 -33 -253 31 -56 49 -78
96 -78 163 0 177 167 281 329 204z"/>
<path d="M1908 1008 c-2 -51 -2 -221 0 -378 l5 -285 323 0 324 0 0 87 0 88
-237 2 -238 3 0 285 0 285 -86 3 -87 3 -4 -93z"/>
<path d="M4171 1088 c0 -7 71 -177 158 -378 l157 -365 91 -3 90 -3 157 365
c86 200 159 371 162 380 6 15 -5 16 -96 14 l-103 -3 -99 -220 c-54 -121 -102
-223 -107 -228 -4 -4 -54 96 -111 223 l-104 230 -98 0 c-72 0 -98 -3 -97 -12z"/>
<path d="M7860 720 l0 -380 90 0 90 0 0 380 0 380 -90 0 -90 0 0 -380z"/>
<path d="M8600 720 l0 -381 88 3 87 3 0 215 c0 136 4 215 10 216 6 0 91 -97
190 -215 l180 -216 93 -3 92 -3 0 381 0 380 -90 0 -90 0 0 -231 c0 -128 -1
-234 -3 -236 -3 -2 -89 102 -193 232 l-188 235 -88 0 -88 0 0 -380z"/>
</g>
</svg>
